<?xml version="1.0" encoding="UTF-8"?>
<svg id="Layer_1" data-name="Layer 1" xmlns="http://www.w3.org/2000/svg" version="1.1" viewBox="0 0 128 128">
  <defs>
    <style>
      .cls-1 {
        fill: #fff;
        stroke-width: 0px;
      }
    </style>
  </defs>
  <path class="cls-1" d="M0,0v128H127.9V0H0ZM93.7,97.9l-1.9,3.7c-.1.1-.2.2-.3.2h-10.6c0,0-.2,0-.3,0l-24.1-35.6c0,0,0,0-.2,0l-9.5,9.1c0,0-.1.2-.1.3v23.8c0,.1,0,.2,0,.3l-2.2,2.2c0,0-.2.1-.3.1h-7.5c-.1,0-.2,0-.3-.1l-2.2-2.2c0,0-.1-.2-.1-.3,0,0,0-70.3,0-70.3,0,0,0-.2,0-.3l2.2-2.4c0,0,.2,0,.3,0h7.6c.1,0,.2,0,.3,0l2.2,2.3c0,.1.1.2.1.3v29.5c0,0,0,.2,0,0l32.1-32.3c.1,0,.2-.1.3-.1h10.5c0,0,.2.1.2.2l1.5,3.4c.1,0,.1.2.1.3v.5c0,0,0,.2-.1.3l-25.9,25.8c0,.1-.1.2,0,.3l28.1,40.7v.3Z"/>
</svg>