<?xml version="1.0" encoding="UTF-8"?>
<svg id="Layer_1" data-name="Layer 1" xmlns="http://www.w3.org/2000/svg" version="1.1" viewBox="0 0 128 128">
  <defs>
    <style>
      .cls-1 {
        stroke-linecap: round;
      }

      .cls-1, .cls-2 {
        fill: none;
        opacity: .9;
        stroke: #fff;
        stroke-dasharray: 0 0 .4 .8;
        stroke-linejoin: round;
        stroke-width: .9px;
      }

      .cls-1, .cls-2, .cls-3 {
        isolation: isolate;
      }

      .cls-2 {
        stroke-linecap: square;
      }

      .cls-3 {
        fill: #000;
        opacity: .6;
      }

      .cls-3, .cls-4 {
        stroke-width: 0px;
      }

      .cls-4 {
        fill: #fff;
      }
    </style>
  </defs>
  <path class="cls-4" d="M64,125.1c-16.3,0-31.7-6.4-43.2-17.9S2.9,80.3,2.9,64s6.4-31.7,17.9-43.2C32.3,9.3,47.7,2.9,64,2.9s31.7,6.4,43.2,17.9c11.5,11.5,17.9,26.9,17.9,43.2s-6.4,31.7-17.9,43.2-26.9,17.9-43.2,17.9Z"/>
  <path class="cls-1" d="M64,63.8h61.1M64,63.8l43.2-43.2M64,63.8V2.7M64,63.8L20.8,20.6M64,63.8H2.9M64,63.8l-43.2,43.2M64,63.8v61.1M64,63.8l43.2,43.2"/>
  <g>
    <path class="cls-2" d="M70.8,63.8l-.2-1.6-.6-1.5-.9-1.4-1.2-1.1-1.5-.8-1.6-.4h-1.7s-1.6.5-1.6.5l-1.4.8-1.2,1.1-.9,1.4-.5,1.6v1.6c-.1,0,.1,1.6.1,1.6l.6,1.5,1,1.3,1.3,1,1.5.7,1.6.3h1.7c0,0,1.6-.6,1.6-.6l1.4-.9,1.2-1.2.9-1.4.5-1.6v-1.2h.1"/>
    <path class="cls-2" d="M84.3,63.8l-.2-2.8-.6-2.8-1-2.7-1.3-2.5-1.7-2.3-2-2-2.2-1.8-2.5-1.4-2.6-1.1-2.8-.7-2.8-.3h-2.8c0,0-2.8.6-2.8.6l-2.7.9-2.6,1.2-2.4,1.6-2.1,1.9-1.8,2.2-1.5,2.4-1.2,2.6-.8,2.7-.4,2.8v2.8l.4,2.8.8,2.7,1.2,2.6,1.5,2.4,1.8,2.2,2.1,1.9,2.4,1.6,2.6,1.2,2.7.9,2.8.5h2.8c0,0,2.8-.2,2.8-.2l2.8-.7,2.6-1.1,2.5-1.4,2.2-1.8,2-2,1.7-2.3,1.3-2.5,1-2.7.6-2.8.2-2.8h0"/>
    <path class="cls-2" d="M97.9,63.8l-.2-3.5-.6-3.5-.9-3.4-1.3-3.3-1.6-3.2-1.9-3-2.2-2.8-2.5-2.5-2.8-2.2-3-1.9-3.2-1.6-3.3-1.3-3.4-.9-3.5-.6-3.5-.2-3.5.2-3.5.6-3.4.9-3.3,1.3-3.2,1.6-3,1.9-2.8,2.2-2.5,2.5-2.2,2.8-1.9,3-1.6,3.2-1.3,3.3-.9,3.4-.6,3.5-.2,3.5.2,3.5.6,3.5.9,3.4,1.3,3.3,1.6,3.2,1.9,3,2.2,2.8,2.5,2.5,2.8,2.2,3,1.9,3.2,1.6,3.3,1.3,3.4.9,3.5.6,3.5.2,3.5-.2,3.5-.6,3.4-.9,3.3-1.3,3.2-1.6,3-1.9,2.8-2.2,2.5-2.5,2.2-2.8,1.9-3,1.6-3.2,1.3-3.3.9-3.4.6-3.5.2-3.5h0"/>
    <path class="cls-2" d="M111.5,63.8l-.3-5-.8-4.9-1.3-4.8-1.8-4.6-2.3-4.4-2.7-4.2-3.1-3.9-3.5-3.5-3.9-3.1-4.2-2.7-4.4-2.3-4.6-1.8-4.8-1.3-4.9-.8-5-.3-5,.3-4.9.8-4.8,1.3-4.6,1.8-4.4,2.3-4.2,2.7-3.9,3.1-3.5,3.5-3.1,3.9-2.7,4.2-2.3,4.4-1.8,4.6-1.3,4.8-.8,4.9-.3,5,.3,5,.8,4.9,1.3,4.8,1.8,4.6,2.3,4.4,2.7,4.2,3.1,3.9,3.5,3.5,3.9,3.1,4.2,2.7,4.4,2.3,4.6,1.8,4.8,1.3,4.9.8,5,.3,5-.3,4.9-.8,4.8-1.3,4.6-1.8,4.4-2.3,4.2-2.7,3.9-3.1,3.5-3.5,3.1-3.9,2.7-4.2,2.3-4.4,1.8-4.6,1.3-4.8.8-4.9.3-5h0"/>
  </g>
  <path class="cls-4" d="M64,126c-16.6,0-32.1-6.4-43.8-18.2S2,80.6,2,64,8.4,31.9,20.2,20.2,47.4,2,64,2s32.1,6.4,43.8,18.2,18.2,27.3,18.2,43.8-6.4,32.1-18.2,43.8-27.3,18.2-43.8,18.2ZM64,3.8c-16.1,0-31.2,6.3-42.6,17.6C10.1,32.8,3.8,47.9,3.8,64s6.3,31.2,17.6,42.6c11.4,11.4,26.5,17.6,42.6,17.6s31.2-6.3,42.6-17.6,17.6-26.5,17.6-42.6-6.3-31.2-17.6-42.6c-11.4-11.4-26.5-17.6-42.6-17.6Z"/>
  <path class="cls-3" d="M64,63.8h.1s.1,0,.1,0h.1s.1,0,.1,0h.1s.1,0,.1,0h.1s.1,0,.1,0h.1s.1,0,.1,0h.1s.1,0,.1,0h.1s.1,0,.1,0h.1s.1,0,.1,0h.1s.1,0,.1,0h.1s.1,0,.1,0h.1s.1,0,.1,0h.1s.1,0,.1,0h.1s.1,0,.1,0h.1s.1,0,.1,0h.1s.1,0,.1,0h.1s.1,0,.1,0h.1s.1,0,.1,0h.1s.1,0,.1,0h.1s.1,0,.1,0h.1s.1,0,.1,0h.1s.1,0,.1,0h.1s.1,0,.1,0h.1s.1,0,.1,0h.1s.1,0,.1,0h.1s.1,0,.1,0h.1s.1,0,.1,0h.1s.1,0,.1,0h.1s.1,0,.1,0h.1s.1,0,.1,0h.1s.1,0,.1,0h.1s.1,0,.1,0h.1s.1,0,.1,0h.1s.1,0,.1,0h.1s.1,0,.1,0h.1s.1,0,.1,0h.1s.1,0,.1,0h.1s.1,0,.1,0h.1s.1,0,.1,0h.1s.1,0,.1,0h.1s.1,0,.1,0h.1s.1,0,.1,0h.1s.1,0,.1,0h.1s.1,0,.1,0h.1s.1,0,.1,0h.1s.1,0,.1,0h.1s.1,0,.1,0h.1s.1,0,.1,0h.1s.1,0,.1,0h.1s.1,0,.1,0h.1s.1,0,.1,0h0s0,0,0,0h0s0,0,0,0h0s0,0,0,0h0s0,0,0,0h0s0,0,0,0h0s0,0,0,0h0s0,0,0,0h0s0,0,0,0h0s0,0,0,0h0s0,0,0,0h0s0,0,0,0h0s0,0,0,0h0s0,0,0,0h0s0,0,0,0h0s0,0,0,0h0s0,0,0,0h0s0,0,0,0h0s0,0,0,0h0s0,0,0,0h0s0,0,0,0h0s0,0,0,0h0s0,0,0,0h0s0,0,0,0h0s0,0,0,0h0s0,0,0,0h0s0,0,0,0h0s0,0,0,0h0s0,0,0,0h0s0,0,0,0h0s0,0,0,0h0s0,0,0,0h0s0,0,0,0h0s0,0,0,0h0s0,0,0,0h0s0,0,0,0h0s0,0,0,0h0s0,0,0,0h0s0,0,0,0h0s0,0,0,0h0s0,0,0,0h0s0,0,0,0h0s0,0,0,0h0s0,0,0,0h0s0,0,0,0h0s0,0,0,0h0s0,0,0,0h0s0,0,0,0h0s0,0,0,0v.2h-13.4s-.1,0-.1,0Z"/>
  <path class="cls-3" d="M64,63.8v-.4c.1,0,.3-.4.3-.4v-.4c.1,0,.3-.4.3-.4v-.4c.1,0,.3-.4.3-.4v-.4c.1,0,.3-.4.3-.4v-.4c.1,0,.3-.4.3-.4v-.4c.1,0,.3-.4.3-.4v-.4c.1,0,.3-.4.3-.4v-.4c.1,0,.3-.4.3-.4v-.4c.1,0,.3-.4.3-.4v-.4c.1,0,.3-.4.3-.4v-.4c.1,0,.3-.4.3-.4v-.4c.1,0,.3-.4.3-.4v-.4c.1,0,.3-.4.3-.4v-.4c.1,0,.3-.4.3-.4v-.4c.1,0,.3-.4.3-.4v-.4c.1,0,.3-.4.3-.4v-.4c.1,0,.3-.4.3-.4v-.4c.1,0,.3-.4.3-.4v-.4c.1,0,.3-.4.3-.4v-.4c.1,0,.3-.4.3-.4v-.4c.1,0,.3-.4.3-.4v-.4c.1,0,.3-.4.3-.4v-.4c.1,0,.3-.4.3-.4v-.4c.1,0,.3-.4.3-.4v-.4c.1,0,.3-.4.3-.4v-.4c.1,0,.3-.4.3-.4v-.4c.1,0,.3-.4.3-.4v-.4c.1,0,.3-.4.3-.4v-.4c.1,0,.3-.4.3-.4v-.4c.1,0,.3-.4.3-.4v-.4c.1,0,.3-.4.3-.4v-.4c.1,0,.3-.4.3-.4v-.4c.1,0,.3-.4.3-.4v-.4c.1,0,.3-.4.3-.4v-.4c.1,0,.3-.4.3-.4v-.4c.1,0,.3-.4.3-.4v-.4c.1,0,.3-.4.3-.4v-.4c.1,0,.3-.4.3-.4v-.4c.1,0,.3-.4.3-.4v-.4c.1,0,.3-.4.3-.4v-.4c.1,0,.3-.4.3-.4v-.4c.1,0,.3-.4.3-.4v-.4c.1,0,.3-.4.3-.4v-.4c.1,0,.3-.4.3-.4v-.4c.1,0,.3-.4.3-.4v-.4c.1,0,.3-.4.3-.4v-.4c.1,0,.3-.4.3-.4v-.4c.1,0,.3-.4.3-.4v-.4c.1,0,.3-.4.3-.4v-.4c.1,0,.3-.4.3-.4h.1s.1,0,.1,0h.1s.1,0,.1,0h.1s.1,0,.1,0h.1s.1,0,.1,0h.1s.1,0,.1,0h.1s.1,0,.1,0h.1s.1,0,.1,0h.1s.1.1.1.1h.1c0,0,.1.1.1.1h.1c0,0,.1.1.1.1h.1c0,0,.1.1.1.1h.1c0,0,.1.1.1.1h.1c0,0,.1.1.1.1h.1c0,0,.1.1.1.1h.1c0,0,.1.1.1.1h.1c0,0,.1.1.1.1h.1c0,0,.1.1.1.1h.1c0,0,.1.1.1.1h.1c0,0,.1.1.1.1h.1c0,0,.1.1.1.1h.1c0,0,.1.1.1.1h.1c0,0,.1.1.1.1h.1c0,0,.1.1.1.1h.1c0,0,.1.1.1.1h.1c0,0,.1.1.1.1h.1c0,0,.1.1.1.1h.1c0,0,.1.1.1.1h.1c0,0,.1.1.1.1h.1c0,0,.1.1.1.1h.1c0,0,.1.1.1.1h.1c0,0,.1.1.1.1h.1c0,0,.1.1.1.1h.1c0,0,.1.1.1.1h.1c0,0,.1.1.1.1h.1c0,0,.1.1.1.1h.1c0,0,.1.1.1.1h.1c0,0,.1.1.1.1h.1c0,0,.1.1.1.1h.1c0,0,.1.1.1.1h.1c0,0,.1.1.1.1h.1c0,0,.1.1.1.1h.1c0,0,.1.1.1.1h.1c0,0,.1.2.1.2h.1c0,0,.1.2.1.2h.1c0,0,.1.2.1.2h.1c0,0,.1.2.1.2h.1c0,0,.1.2.1.2h.1c0,0,.1.2.1.2h.1c0,0,.1.2.1.2h0c0,0,0,.2,0,.2l-.3.3-.3.3-.3.3-.3.3-.3.3-.3.3-.3.3-.3.3-.3.3-.3.3-.3.3-.3.3-.3.3-.3.3-.3.3-.3.3-.3.3-.3.3-.3.3-.3.3-.3.3-.3.3-.3.3-.3.3-.3.3-.3.3-.3.3-.3.3-.3.3-.3.3-.3.3-.3.3-.3.3-.3.3-.3.3-.3.3-.3.3-.3.3-.3.3-.3.3-.3.3-.3.3-.3.3-.3.3-.3.3-.3.3-.3.3-.3.3-.3.3-.3.3-.3.3-.3.3-.3.3-.3.3-.3.3-.3.3-.3.3-.3.3-.3.3-.3.3-.3.3-.3.3-.3.3-.3.3-.3.3-.3.3-.3.3-.3.3-.3.3-.3.3-.3.3-.3.3-.3.3-.3.3-.3.3-.3.3-.3.3-.3.3-.3.3-.3.3-.3.3-.3.3-.3.3-.3.3-.3.3-.3.3-.3.3-.3.3-.3.3-.3.3-.3.3-.3.3-.3.3-.3.3-.3.3-.3.3-.3.3-.3.3-.3.3-.3.3h0Z"/>
  <path class="cls-3" d="M64,63.8l-.3-.4-.3-.4-.3-.4-.3-.4-.3-.4-.3-.4-.3-.4-.3-.4-.3-.4-.3-.4-.3-.4-.3-.4-.3-.4-.3-.4-.3-.4-.3-.4-.3-.4-.3-.4-.3-.4-.3-.4-.3-.4-.3-.4-.3-.4-.3-.4-.3-.4-.3-.4-.3-.4-.3-.4-.3-.4-.3-.4-.3-.4-.3-.4-.3-.4-.3-.4-.3-.4-.3-.4-.3-.4-.3-.4-.3-.4-.3-.4-.3-.4-.3-.4-.3-.4-.3-.4-.3-.4-.3-.4-.3-.4-.3-.4-.3-.4-.3-.4-.3-.4-.3-.4-.3-.4-.3-.4-.3-.4-.3-.4-.3-.4-.3-.4-.3-.4-.3-.4-.3-.4-.3-.4-.3-.4-.3-.4-.3-.4-.3-.4-.3-.4-.3-.4-.3-.4-.3-.4-.3-.4-.3-.4-.3-.4-.3-.4-.3-.4-.3-.4-.3-.4-.3-.4-.3-.4-.3-.4-.3-.4-.3-.4-.3-.4-.3-.4-.3-.4-.3-.4-.3-.4-.3-.4-.3-.4-.3-.4-.3-.4-.3-.4-.3-.4-.3-.4-.3-.4-.3-.4-.3-.4-.3-.4-.3-.4-.3-.4.2-.2.2-.2.2-.2.2-.2.2-.2.2-.2.2-.2.2-.2.2-.2.2-.2.2-.2.2-.2.2-.2.2-.2h.2c0-.1.2-.3.2-.3h.2c0-.1.2-.3.2-.3h.2c0-.1.2-.3.2-.3h.2c0-.1.2-.3.2-.3h.2c0-.1.2-.3.2-.3h.2c0-.1.2-.3.2-.3h.2c0-.1.2-.3.2-.3h.2c0-.1.2-.3.2-.3h.2c0-.1.2-.3.2-.3h.2c0-.1.2-.3.2-.3h.2c0-.1.2-.3.2-.3h.2c0-.1.2-.3.2-.3h.2c0-.1.2-.3.2-.3h.2c0-.1.2-.2.2-.2h.2c0-.1.2-.2.2-.2h.2c0-.1.2-.2.2-.2h.2c0-.1.2-.2.2-.2h.2c0-.1.2-.2.2-.2h.2c0-.1.2-.2.2-.2h.2c0-.1.2-.2.2-.2h.2c0-.1.2-.2.2-.2h.2c0-.1.2-.2.2-.2h.2c0-.1.2-.2.2-.2h.2c0-.1.2-.2.2-.2h.2c0-.1.2-.2.2-.2h.2c0,0,.2-.2.2-.2h.2c0,0,.2-.2.2-.2h.2c0,0,.2-.2.2-.2h.2c0,0,.2-.2.2-.2h.2c0,0,.2-.2.2-.2h.2c0,0,.2-.2.2-.2h.2c0,0,.2-.2.2-.2h.2c0,0,.2-.2.2-.2h.2c0,0,.2-.2.2-.2h.2c0,0,.2-.2.2-.2h.2c0,0,.2-.1.2-.1h.2c0,0,.2-.1.2-.1h.2c0,0,.2-.1.2-.1h.2c0,0,.2-.1.2-.1h.2c0,0,.2-.1.2-.1h.2c0,0,.2-.1.2-.1h.2c0,0,.2-.1.2-.1h.2c0,0,.2-.1.2-.1v.5c.1,0,.2.5.2.5v.5c.1,0,.2.5.2.5v.5c.1,0,.2.5.2.5v.5c.1,0,.2.5.2.5v.5c.1,0,.2.5.2.5v.5c.1,0,.2.5.2.5v.5c.1,0,.2.5.2.5v.5c.1,0,.2.5.2.5v.5c.1,0,.2.5.2.5v.5c.1,0,.2.5.2.5v.5c.1,0,.2.5.2.5v.5c.1,0,.2.5.2.5v.5c.1,0,.2.5.2.5v.5c.1,0,.2.5.2.5v.5c.1,0,.2.5.2.5v.5c.1,0,.2.5.2.5v.5c.1,0,.2.5.2.5v.5c.1,0,.2.5.2.5v.5c.1,0,.2.5.2.5v.5c.1,0,.2.5.2.5v.5c.1,0,.2.5.2.5v.5c.1,0,.2.5.2.5v.5c.1,0,.2.5.2.5v.5c.1,0,.2.5.2.5v.5c.1,0,.2.5.2.5v.5c.1,0,.2.5.2.5v.5c.1,0,.2.5.2.5v.5c.1,0,.2.5.2.5v.5c.1,0,.2.5.2.5v.5c.1,0,.2.5.2.5v.5c.1,0,.2.5.2.5v.5c.1,0,.2.5.2.5v.5c.1,0,.2.5.2.5v.5c.1,0,.2.5.2.5v.5c.1,0,.2.5.2.5v.5c.1,0,.2.5.2.5v.5c.1,0,.2.5.2.5v.5c.1,0,.2.5.2.5v.5c.1,0,.2.5.2.5v.5c.1,0,.2.5.2.5v.5c.1,0,.2.5.2.5v.5c.1,0,.2.5.2.5v.5c.1,0,.2.5.2.5v.5c.1,0,.2.5.2.5v.5c.1,0,.2.5.2.5v.5c.1,0,.2.5.2.5v.5c.1,0,.2.5.2.5v.5c.1,0,.2.5.2.5v.5c.1,0,.2.5.2.5v.5c.1,0,.2.6.2.6h0Z"/>
  <path class="cls-3" d="M64,63.8h-.5c0,0-.5.2-.5.2h-.5c0,0-.5.2-.5.2h-.5c0,0-.5.2-.5.2h-.5c0,0-.5.2-.5.2h-.5c0,0-.5.2-.5.2h-.5c0,0-.5.2-.5.2h-.5c0,0-.5.2-.5.2h-.5c0,0-.5.2-.5.2h-.5c0,0-.5.2-.5.2h-.5c0,0-.5.2-.5.2h-.5c0,0-.5.2-.5.2h-.5c0,0-.5.2-.5.2h-.5c0,0-.5.2-.5.2h-.5c0,0-.5.2-.5.2h-.5c0,0-.5.2-.5.2h-.5c0,0-.5.2-.5.2h-.5c0,0-.5.2-.5.2h-.5c0,0-.5.2-.5.2h-.5c0,0-.5.2-.5.2h-.5c0,0-.5.2-.5.2h-.5c0,0-.5.2-.5.2h-.5c0,0-.5.2-.5.2h-.5c0,0-.5.2-.5.2h-.5c0,0-.5.2-.5.2h-.5c0,0-.5.2-.5.2h-.5c0,0-.5.2-.5.2h-.5c0,0-.5.2-.5.2h-.5c0,0-.5.2-.5.2h-.5c0,0-.5.2-.5.2h-.5c0,0-.5.2-.5.2h-.5c0,0-.5.2-.5.2h-.5c0,0-.5.2-.5.2h-.5c0,0-.5.2-.5.2h-.5c0,0-.5.2-.5.2h-.5c0,0-.5.2-.5.2h-.5c0,0-.5.2-.5.2h-.5c0,0-.5.2-.5.2h-.5c0,0-.5.2-.5.2h-.5c0,0-.5.2-.5.2h-.5c0,0-.5.2-.5.2h-.5c0,0-.5.2-.5.2h-.5c0,0-.5.2-.5.2h-.5c0,0-.5.2-.5.2h-.5c0,0-.5.2-.5.2h-.5c0,0-.5.2-.5.2h-.5c0,0-.5.2-.5.2h-.5c0,0-.5.2-.5.2h-.5c0,0-.5.2-.5.2h-.5c0,0-.5.2-.5.2h-.5c0,0-.5.2-.5.2v-.3c0,0-.1-.3-.1-.3v-.3s0-.3,0-.3v-.3s0-.3,0-.3v-.3s0-.3,0-.3v-.3s0-.3,0-.3v-.3s0-.3,0-.3v-.3s0-.3,0-.3v-.3s0-.3,0-.3v-.3s0-.3,0-.3v-.3s0-.3,0-.3v-.3s0-.3,0-.3v-.3s0-.3,0-.3v-.3s0-.3,0-.3v-.3s0-.3,0-.3v-.6s0-.3,0-.3v-.3s0-.3,0-.3v-.3s0-.3,0-.3v-.3s0-.3,0-.3v-.3s0-.3,0-.3v-.3s0-.3,0-.3v-.3s0-.3,0-.3v-.3s0-.3,0-.3v-.3s0-.3,0-.3v-.3s0-.3,0-.3v-.3s0-.3,0-.3v-.3s0-.3,0-.3v-.3s0-.3,0-.3v-.3s.1-.3.1-.3v-.3c0,0,.1-.3.1-.3v-.3c0,0,.1-.3.1-.3v-.3c0,0,.1-.3.1-.3v-.3c0,0,.1-.3.1-.3v-.3c0,0,.1-.3.1-.3v-.3c0,0,.1-.3.1-.3v-.3c0,0,.2-.3.2-.3v-.3c0,0,.2-.3.2-.3v-.3c0,0,.2-.3.2-.3v-.3c0,0,.2-.3.2-.3v-.3c0,0,.2-.3.2-.3v-.3c0,0,.2-.3.2-.3v-.3c0,0,.2-.3.2-.3v-.3c.1,0,.2-.3.2-.3v-.3c.1,0,.2-.3.2-.3v-.3c.1,0,.2-.3.2-.3v-.3c.1,0,.2-.3.2-.3v-.3c.1,0,.2-.3.2-.3v-.3c.1,0,.2-.3.2-.3v-.3c.1,0,.2-.3.2-.3v-.3c.1,0,.3-.3.3-.3v-.3c.1,0,.6.2.6.2l.4.2.4.2.4.2.4.2.4.2.4.2.4.2.4.2.4.2.4.2.4.2.4.2.4.2.4.2.4.2.4.2.4.2.4.2.4.2.4.2.4.2.4.2.4.2.4.2.4.2.4.2.4.2.4.2.4.2.4.2.4.2.4.2.4.2.4.2.4.2.4.2.4.2.4.2.4.2.4.2.4.2.4.2.4.2.4.2.4.2.4.2.4.2.4.2.4.2.4.2.4.2.4.2.4.2.4.2.4.2.4.2.4.2.4.2.4.2.4.2.4.2.4.2.4.2.4.2.4.2.4.2.4.2.4.2.4.2.4.2.4.2.4.2.4.2.4.2.4.2.4.2.4.2.4.2.4.2.4.2.4.2.4.2.4.2.4.2.4.2.4.2.4.2.4.2.4.2.4.2.4.2.4.2.4.2.4.2.4.2.4.2.4.2.4.2.4.2h0Z"/>
  <path class="cls-3" d="M64,63.8l-.2.2-.2.2-.2.2-.2.2-.2.2-.2.2-.2.2-.2.2-.2.2-.2.2-.2.2-.2.2-.2.2-.2.2-.2.2-.2.2-.2.2-.2.2-.2.2-.2.2-.2.2-.2.2-.2.2-.2.2-.2.2-.2.2-.2.2-.2.2-.2.2-.2.2-.2.2-.2.2-.2.2-.2.2-.2.2-.2.2-.2.2-.2.2-.2.2-.2.2-.2.2-.2.2-.2.2-.2.2-.2.2-.2.2-.2.2-.2.2-.2.2-.2.2-.2.2-.2.2-.2.2-.2.2h-.2c0,.1-.2.3-.2.3l-.2.2-.2.2-.2.2-.2.2-.2.2-.2.2-.2.2-.2.2-.2.2-.2.2-.2.2-.2.2-.2.2-.2.2-.2.2-.2.2-.2.2-.2.2-.2.2-.2.2-.2.2-.2.2-.2.2-.2.2-.2.2-.2.2-.2.2-.2.2-.2.2-.2.2-.2.2-.2.2-.2.2-.2.2-.2.2-.2.2-.2.2-.2.2-.2.2-.2.2-.2.2-.2.2h-.2c0,.1-.2.3-.2.3h0s0,0,0,0h0s0,0,0,0h0s0,0,0,0h0s0,0,0,0h0s0,0,0,0h0s0,0,0,0h0s0,0,0,0h0s0,0,0,0h0s0,0,0,0h0s0,0,0,0h0s0,0,0,0h0s0,0,0,0h0s0,0,0,0h0s0,0,0,0h0s0,0,0,0h0s0,0,0,0h0s0,0,0,0h0s0,0,0,0h0s0,0,0,0h0s0,0,0,0h0s0,0,0,0h0s0,0,0,0h0s0,0,0,0h0s0,0,0,0h0s0,0,0,0h0s0,0,0,0h0s0,0,0,0h0s0,0,0,0h0s0,0,0,0h0s0,0,0,0h0s0,0,0,0h0s0,0,0,0h0s0,0,0,0h0s0,0,0,0h0s0,0,0,0h0s0,0,0,0h0s0,0,0,0h0s0,0,0,0h0s0,0,0,0h0s0,0,0,0h0s0,0,0,0h0s0,0,0,0h0s0,0,0,0h0s0,0,0,0h0s0,0,0,0h0s0,0,0,0h0s0,0,0,0h0s0,0,0,0h0s0,0,0,0h0s0,0,0,0h.2c0-.1.2-.2.2-.2h.2c0-.1.2-.2.2-.2h.2c0-.1.2-.2.2-.2h.2c0-.1.2-.2.2-.2h.2c0-.1.2-.2.2-.2h.2c0-.1.2-.2.2-.2h.2c0-.1.2-.2.2-.2h.2c0-.1.2-.2.2-.2h.2c0-.1.2-.2.2-.2h.2c0-.1.2-.2.2-.2h.2c0-.1.2-.2.2-.2h.2c0-.1.2-.2.2-.2h.2c0-.1.2-.2.2-.2h.2c0-.1.2-.2.2-.2h.2c0-.1.2-.2.2-.2h.2c0-.1.2-.2.2-.2h.2c0-.1.2-.2.2-.2h.2c0-.1.2-.2.2-.2h.2c0-.1.2-.2.2-.2h.2c0-.1.2-.2.2-.2h.2c0-.1.2-.2.2-.2h.2c0-.1.2-.2.2-.2h.2c0-.1.2-.2.2-.2h.2c0-.1.2-.2.2-.2h.2c0-.1.2-.2.2-.2h.2c0-.1.2-.2.2-.2h.2c0-.1.2-.2.2-.2h.2c0-.1.2-.2.2-.2h.2c0-.1.2-.2.2-.2h.2c0-.1.2-.2.2-.2h.2c0-.1.2-.2.2-.2h.2c0-.1.2-.2.2-.2h.2c0-.1.2-.2.2-.2h.2c0-.1.2-.2.2-.2h.2c0-.1.2-.2.2-.2h.2c0-.1.2-.2.2-.2h.2c0-.1.2-.2.2-.2h.2c0-.1.2-.2.2-.2h.2c0-.1.2-.2.2-.2h.2c0-.1.2-.2.2-.2h.2c0-.1.2-.2.2-.2h.2c0-.1.2-.2.2-.2h.2c0-.1.2-.2.2-.2h.2c0-.1.2-.2.2-.2h.2c0-.1.2-.2.2-.2h.2c0-.1.2-.2.2-.2h.2c0-.1.2-.2.2-.2h.2c0-.1.2-.2.2-.2h.2c0-.1.2-.2.2-.2h.2c0-.1.2-.2.2-.2h0Z"/>
  <path class="cls-3" d="M64,63.8v.3c0,0,.1.3.1.3v.3c0,0,.1.3.1.3v.3c0,0,.1.3.1.3v.3c0,0,.1.3.1.3v.3c0,0,.1.3.1.3v.3c0,0,.1.3.1.3v.3c0,0,.1.3.1.3v.3c0,0,.1.3.1.3v.3c0,0,.1.3.1.3v.3c0,0,.1.3.1.3v.3c0,0,.1.3.1.3v.3c0,0,.1.3.1.3v.3c0,0,.1.3.1.3v.3c0,0,.1.3.1.3v.3c0,0,.1.3.1.3v.3c0,0,.1.3.1.3v.3c0,0,.1.3.1.3v.3c0,0,.1.3.1.3v.3c0,0,.1.3.1.3v.3c0,0,.1.3.1.3v.3c0,0,.1.3.1.3v.3c0,0,.1.3.1.3v.3c0,0,.1.3.1.3v.3c0,0,.1.3.1.3v.3c0,0,.1.3.1.3v.3c0,0,.1.3.1.3v.3c0,0,.1.3.1.3v.3c0,0,.1.3.1.3v.3c0,0,.1.3.1.3v.3c0,0,.1.3.1.3v.3c0,0,.1.3.1.3v.3c0,0,.1.3.1.3v.3c0,0,.1.3.1.3v.3c0,0,.1.3.1.3v.3c0,0,.1.3.1.3v.3c0,0,.1.3.1.3v.3c0,0,.1.3.1.3v.3c0,0,.1.3.1.3v.3c0,0,.1.3.1.3v.3c0,0,.1.3.1.3v.3c0,0,.1.3.1.3v.3c0,0,.1.3.1.3v.3c0,0,.1.3.1.3v.3c0,0,.1.3.1.3v.3c0,0,.1.3.1.3v.3c0,0,.1.3.1.3v.3c0,0,.1.3.1.3v.3c0,0,.1.3.1.3v.3c0,0,.1.3.1.3v.3c0,0,.1.3.1.3h-.1s-.1,0-.1,0h-.1s-.1,0-.1,0h-.1s-.1,0-.1,0h-.1s-.1,0-.1,0h-.1s-.1,0-.1,0h-.1s-.1,0-.1,0h-.1s-.1,0-.1,0h-.1s-.1,0-.1,0h-.1s-.1,0-.1,0h-.1s-.1,0-.1,0h-.1s-.1,0-.1,0h-.1s-.1,0-.1,0h-.1s-.1,0-.1,0h-.1s-.1,0-.1,0h-.1s-.1,0-.1,0h-.1s-.1,0-.1,0h-.1s-.1,0-.1,0h-.1s-.1,0-.1,0h-.1s-.1,0-.1,0h-.1s-.1,0-.1,0h-.1s-.1,0-.1,0h-.4s-.1,0-.1,0h-.1s-.1,0-.1,0h-.1s-.1,0-.1,0h-.1s-.2,0-.2,0h-.1s-.1,0-.1,0h-.1s-.1,0-.1,0h-.1s-.1,0-.1,0h-.1s-.1,0-.1,0h-.1s-.1,0-.1,0h-.1s-.1,0-.1,0h-.1s-.1,0-.1,0h-.1s-.1,0-.1,0h-.1s-.1,0-.1,0h-.1s-.1,0-.1,0h-.1s-.1,0-.1,0h-.1s-.1,0-.1,0h-.1s-.1,0-.1,0h-.1s-.1,0-.1,0h-.1s-.1,0-.1,0h-.1s-.1,0-.1,0h-.1s-.1,0-.1,0h-.1s-.1,0-.1,0h-.1s-.1,0-.1,0h-.1s-.1,0-.1,0h-.1s-.1,0-.1,0h-.1s-.1,0-.1,0h-.1s-.1,0-.1,0h-.1s-.1,0-.1,0v-.3c0,0,.2-.3.2-.3v-.3c0,0,.2-.3.2-.3v-.3c0,0,.2-.3.2-.3v-.3c0,0,.2-.3.2-.3v-.3c0,0,.2-.3.2-.3v-.3c0,0,.2-.3.2-.3v-.3c0,0,.2-.3.2-.3v-.3c0,0,.2-.3.2-.3v-.3c0,0,.2-.3.2-.3v-.3c0,0,.2-.3.2-.3v-.3c0,0,.2-.3.2-.3v-.3c0,0,.2-.3.2-.3v-.3c0,0,.2-.3.2-.3v-.3c0,0,.2-.3.2-.3v-.3c0,0,.2-.3.2-.3v-.3c0,0,.2-.3.2-.3v-.3c0,0,.2-.3.2-.3v-.3c0,0,.2-.3.2-.3v-.3c0,0,.2-.3.2-.3v-.3c0,0,.2-.3.2-.3v-.3c0,0,.2-.3.2-.3v-.3c0,0,.2-.3.2-.3v-.3c0,0,.2-.3.2-.3v-.3c0,0,.2-.3.2-.3v-.3c0,0,.2-.3.2-.3v-.3c0,0,.2-.3.2-.3v-.3c0,0,.2-.3.2-.3v-.3c0,0,.2-.3.2-.3v-.3c0,0,.2-.3.2-.3v-.3c0,0,.2-.3.2-.3v-.3c0,0,.2-.3.2-.3v-.3c0,0,.2-.3.2-.3v-.3c0,0,.2-.3.2-.3v-.3c0,0,.2-.3.2-.3v-.3c0,0,.2-.3.2-.3v-.3c0,0,.2-.3.2-.3v-.3c0,0,.2-.3.2-.3v-.3c0,0,.2-.3.2-.3v-.3c0,0,.2-.3.2-.3v-.3c0,0,.2-.3.2-.3v-.3c0,0,.2-.3.2-.3v-.3c0,0,.2-.3.2-.3v-.3c0,0,.2-.3.2-.3v-.3c0,0,.2-.3.2-.3v-.3c0,0,.2-.3.2-.3v-.3c0,0,.2-.3.2-.3v-.3c0,0,.2-.3.2-.3v-.3c0,0,.2-.3.2-.3v-.3c0,0,.2-.3.2-.3v-.3c0,0,.1-.3.1-.3h0Z"/>
  <path class="cls-3" d="M64,63.8l.4.3.4.3.4.3.4.3.4.3.4.3.4.3.4.3.4.3.4.3.4.3.4.3.4.3.4.3.4.3.4.3.4.3.4.3.4.3.4.3.4.3.4.3.4.3.4.3.4.3.4.3.4.3.4.3.4.3.4.3.4.3.4.3.4.3.4.3.4.3.4.3.4.3.4.3.4.3.4.3.4.3.4.3.4.3.4.3.4.3.4.3.4.3.4.3.4.3.4.3.4.3.4.3.4.3.4.3.4.3.4.3.4.3.4.3.4.3.4.3.4.3.4.3.4.3.4.3.4.3.4.3.4.3.4.3.4.3.4.3.4.3.4.3.4.3.4.3.4.3.4.3.4.3.4.3.4.3.4.3.4.3.4.3.4.3.4.3.4.3.4.3.4.3.4.3.4.3.4.3.4.3.4.3.4.3.4.3.4.3.4.3.4.3.4.3.4.3.4.3h0c0,.1,0,.2,0,.2h0c0,0,0,.2,0,.2h0c0,0,0,.2,0,.2h0c0,0,0,.2,0,.2h0c0,0,0,.2,0,.2h0c0,0,0,.2,0,.2h0c0,0,0,.2,0,.2h0c0,0,0,.2,0,.2h0c0,0,0,.2,0,.2h0c0,0,0,.2,0,.2h0c0,0,0,.2,0,.2h0c0,0,0,.2,0,.2h0c0,0,0,.2,0,.2h0c0,0,0,.2,0,.2h0c0,0,0,.2,0,.2h0c0,0,0,.2,0,.2h0c0,0,0,.2,0,.2h0c0,0,0,.2,0,.2h0c0,0,0,.2,0,.2h0c0,0,0,.2,0,.2h0c0,0,0,.2,0,.2h0c0,0,0,.2,0,.2h0c0,0,0,.2,0,.2h0c0,0,0,.2,0,.2h0c0,0,0,.2,0,.2h0c0,0,0,.2,0,.2h0c0,0,0,.2,0,.2h0c0,0,0,.2,0,.2h0c0,0,0,.2,0,.2h0c0,0,0,.2,0,.2h0c0,0,0,.2,0,.2h0c0,0,0,.2,0,.2h0c0,0,0,.2,0,.2h0c0,0,0,.2,0,.2h0c0,0,0,.2,0,.2h0c0,0,0,.2,0,.2h0c0,0,0,.2,0,.2h0c0,0,0,.2,0,.2h0c0,0,0,.2,0,.2h0c0,0,0,.2,0,.2h0c0,0,0,.2,0,.2h0c0,0,0,.2,0,.2h0c0,0,0,.2,0,.2h0c0,0,0,.2,0,.2h0c0,0,0,.2,0,.2h0c0,0,0,.2,0,.2h0c0,0,0,.2,0,.2h0c0,0,0,.2,0,.2h0c0,0,0,.2,0,.2h0c0,0,0,.2,0,.2l-.3-.4-.3-.4-.3-.4-.3-.4-.3-.4-.3-.4-.3-.4-.3-.4-.3-.4-.3-.4-.3-.4-.3-.4-.3-.4-.3-.4-.3-.4-.3-.4-.3-.4-.3-.4-.3-.4-.3-.4-.3-.4-.3-.4-.3-.4-.3-.4-.3-.4-.3-.4-.3-.4-.3-.4-.3-.4-.3-.4-.3-.4-.3-.4-.3-.4-.3-.4-.3-.4-.3-.4-.3-.4-.3-.4-.3-.4-.3-.4-.3-.4-.3-.4-.3-.4-.3-.4-.3-.4-.3-.4-.3-.4-.3-.4-.3-.4-.3-.4-.3-.4-.3-.4-.3-.4-.3-.4-.3-.4-.3-.4-.3-.4-.3-.4-.3-.4-.3-.4-.3-.4-.3-.4-.3-.4-.3-.4-.3-.4-.3-.4-.3-.4-.3-.4-.3-.4-.3-.4-.3-.4-.3-.4-.3-.4-.3-.4-.3-.4-.3-.4-.3-.4-.3-.4-.3-.4-.3-.4-.3-.4-.3-.4-.3-.4-.3-.4-.3-.4-.3-.4-.3-.4-.3-.4-.3-.4-.3-.4-.3-.4-.3-.4-.3-.4-.3-.4-.3-.4-.3-.4-.3-.4-.3-.4-.3-.4-.3-.4h0Z"/>
  <path class="cls-4" d="M77.6,64.2h-13.6c-.2,0-.4-.2-.4-.4,0-.2.1-.3.3-.4l12.9-4.2c.2,0,.4,0,.5.3,0,0,0,0,0,0,.5,1.4.7,2.9.7,4.3,0,.2-.2.4-.4.4h0ZM66.6,63.4h10.5c0-1.1-.2-2.2-.5-3.3l-10,3.3Z"/>
  <path class="cls-4" d="M64,64.2c-.2,0-.4-.2-.4-.4,0,0,0,0,0-.1l14.3-38.1c0-.2.3-.3.5-.2,0,0,0,0,0,0,4,1.5,7.8,3.7,11.2,6.4.2.1.2.4,0,.6l-25.4,31.8c0,0-.2.2-.3.2ZM78.5,26.2l-13.2,35.3,23.5-29.5c-3.1-2.4-6.6-4.4-10.3-5.8Z"/>
  <path class="cls-4" d="M64,64.2c-.1,0-.2,0-.3-.1L28.9,22.4c-.1-.2-.1-.4,0-.6,0,0,0,0,0,0,6.6-5.5,14.5-9.4,22.9-11.3.2,0,.4,0,.5.3l12.1,52.9c0,.2,0,.4-.2.5,0,0-.1,0-.2,0ZM29.8,22.2l33.4,40-11.6-50.9c-8,1.9-15.5,5.6-21.8,10.8Z"/>
  <path class="cls-4" d="M17.2,72.7c-.2,0-.4-.1-.4-.3-1.8-9.9-.4-20.3,4-29.4,0-.2.3-.3.6-.2l42.8,20.6c.2,0,.3.3.2.6,0,.1-.2.2-.3.2l-46.8,8.5s0,0,0,0ZM21.4,43.7c-4.1,8.7-5.4,18.6-3.8,28.1l45.1-8.2-41.3-19.9Z"/>
  <path class="cls-4" d="M41.7,79.7c-.1,0-.3,0-.3-.2-.8-1.2-1.5-2.4-2.2-3.7,0-.2,0-.5.2-.6,0,0,0,0,0,0l24.5-11.8c.2-.1.5,0,.6.2,0,.2,0,.4-.1.5l-22.3,15.5c0,0-.2,0-.2,0ZM40.1,75.8c.5,1,1.1,2,1.7,2.9l17.7-12.2s-19.4,9.3-19.4,9.3Z"/>
  <path class="cls-4" d="M64,98.1c-2.6,0-5.2-.3-7.7-.9-.2,0-.4-.3-.3-.5l7.6-33.1c0-.2.2-.4.4-.3.2,0,.4.1.4.3l5.7,33.5c0,.2-.1.4-.3.5-1.9.3-3.8.5-5.7.5ZM56.9,96.6c4,.9,8.2,1,12.3.3l-5.3-31s-7,30.7-7,30.7Z"/>
  <path class="cls-4" d="M97.8,106.7c-.1,0-.2,0-.3-.2l-33.9-42.5c-.1-.2-.1-.4,0-.6.2-.1.4-.1.5,0l42.8,33.4c.2.1.2.4,0,.6-2.6,3.4-5.7,6.5-9,9.1,0,0-.2,0-.3,0ZM66.5,66.3l31.4,39.4c3.1-2.5,5.9-5.3,8.3-8.4l-39.7-31Z"/>
</svg>