<?xml version="1.0" encoding="UTF-8"?>
<svg id="Layer_1" data-name="Layer 1" xmlns="http://www.w3.org/2000/svg" version="1.1" viewBox="0 0 128 128">
  <defs>
    <style>
      .cls-1 {
        fill: #fff;
        stroke-width: 0px;
      }
    </style>
  </defs>
  <path class="cls-1" d="M112.9,66.6c9,5.3,15.1,15,15.1,26.2,0,16.8-13.6,30.5-30.5,30.5-16.9,0-30.6-13.6-30.6-30.4,0-11.2,6-20.9,15-26.2l8.8,14.8c.2.4,0,.8-.3,1.1-3.3,2.2-5.5,6-5.5,10.3,0,6.9,5.6,12.5,12.6,12.5,6.9,0,12.5-5.6,12.5-12.5,0-4.3-2.2-8.1-5.5-10.3-.4-.2-.5-.7-.3-1.1l8.7-14.8Z"/>
  <path class="cls-1" d="M45.5,66.4c-4.6-2.5-9.7-3.9-14.9-3.9-16.9,0-30.5,13.6-30.5,30.4s13.7,30.4,30.5,30.4,31-14.3,30.5-31.2h-17.2c-.5,0-.8.4-.8.8,0,6.7-5.7,12.4-12.5,12.4s-12.5-5.6-12.5-12.5,5.6-12.5,12.5-12.5,3.5.4,5.1,1.1c.4.2.8,0,1-.3l8.8-14.8Z"/>
  <path class="cls-1" d="M47.9,61.6c-9-5.3-15-15.1-15-26.2,0-16.8,13.7-30.4,30.5-30.4s30.5,13.6,30.5,30.4-6,20.9-15,26.2l-8.8-14.8c-.2-.4,0-.8.3-1.1,3.3-2.2,5.5-6,5.5-10.3,0-6.9-5.6-12.5-12.5-12.5s-12.5,5.6-12.5,12.5,2.2,8.1,5.5,10.3c.4.2.5.7.3,1.1l-8.7,14.8Z"/>
</svg>