<?xml version="1.0" encoding="UTF-8"?>
<svg id="Layer_1" data-name="Layer 1" xmlns="http://www.w3.org/2000/svg" version="1.1" viewBox="0 0 128 128">
  <defs>
    <style>
      .cls-1 {
        fill: #38383c;
      }

      .cls-1, .cls-2 {
        stroke-width: 0px;
      }

      .cls-2 {
        fill: #fff;
      }
    </style>
  </defs>
  <path class="cls-1" d="M123.7,85.7c-.6,0-.9-.3-.9-1.1s.3-1.7,1-3.5c1-2.6,1.5-4.4,1.5-5.6s-.2-1.2-.6-1.7-.9-.7-1.5-.7c-.9,0-1.9.4-3,1.2-1.1.8-2.7,2.3-4.6,4.5.3-1.4.9-3.3,1.8-5.8l-4.3.8c-1,2.1-1.7,4-2.1,5.7-.2.8-.4,1.7-.5,2.6-1.3,1.3-2.2,2.1-2.6,2.4s-.8.4-1.2.4-.7-.2-.9-.4-.3-.7-.3-1.2,0-1.1.3-1.8.6-2,1.3-3.9l1.6-4.5h-1.6c-1.5,2.8-3.2,4.3-5.1,4.6.5-1.4.8-2.4.8-3.2s-.5-1.4-1.4-1.4-1.9.5-2.6,1.5c-.6,1-.9,2-.9,2.9s.5,1.6,1.5,2c-.7,1-1.4,1.9-2.2,2.7s-1.7,1.7-2.2,2.1c-.6.5-1.1.7-1.5.7-.7,0-1.1-.5-1.1-1.5s.4-2.8,1.2-5.3l1.6-5.2h-1l-3.6,2c-.6-1.3-1.6-2-3.1-2s-2.5.5-4,1.5-2.8,2.3-3.7,3.9c-.8,1.2-1.2,2.5-1.4,3.9-1.4,1.4-2.4,2.2-3.1,2.7-.7.4-1.4.6-2.2.6-2,0-3.2-1.2-3.7-3.4,5.2-1.5,7.8-3.5,7.8-5.9s-.3-1.7-1-2.2c-.7-.6-1.5-.8-2.6-.8-2.1,0-4,1-5.8,3-1.6,1.8-2.4,3.9-2.6,6.1-1.4,1.4-2.5,2.3-3.2,2.8s-1.4.7-2,.7-1.1-.3-1.5-.9-.6-1.4-.6-2.4,0-1.3,0-2.5c2.4-2.6,4.1-5,5.2-7.2,1.1-2.2,1.7-4.6,1.7-7s0-1.5-.3-2c-.2-.5-.5-.8-.8-.8h-.3l-4.5,1.7c-1.5,2.9-2.8,6.1-3.9,9.6-1.1,3.5-1.6,6.4-1.6,8.9s.4,3,1.2,3.9c.8,1,1.8,1.5,3,1.5s2.2-.3,3.5-1.1c1.2-.7,2.6-1.8,4.2-3.3,1.6-1.5,0,0,0,0,.2,1.1.7,2,1.4,2.8,1,1,2.3,1.5,3.9,1.5s2.8-.3,3.9-1.1c1.2-.7,2.4-1.7,3.9-3.1,0,1,.5,1.9,1,2.7.7,1,1.6,1.5,2.6,1.5s2.1-.4,3.1-1.2c1-.8,2.1-2.1,3.3-3.7,0,3.3.8,4.9,2.6,4.9s1.5-.3,2.3-.8,2.2-1.7,4.1-3.5c1.6-1.6,2.8-3.1,3.6-4.6,1-.2,2-.5,2.9-.9-1.8,2.8-2.7,5-2.7,6.7s.2,1.7.7,2.2,1.1.9,1.8.9c1.6,0,3.8-1.4,6.7-4.2v.7c0,.8,0,2,.2,3.6l3.9-.9v-2.5c0-.8.2-1.8.3-2.8,0-.6.4-1.2.8-1.7l1-1.2c.4-.4.7-.8,1-1.1l1-1c.3-.3.6-.5.9-.7s.5-.2.7-.2c.3,0,.4.2.4.6s-.3,1.3-.8,2.7c-1,2.6-1.6,4.5-1.6,5.8s.2,1.7.7,2.2c.5.6,1.1.8,1.9.8,1.9,0,4.3-1.4,7-4.3v-2c-1.9,2.3-3.3,3.4-4.2,3.4h0ZM58.5,77.4c.8-3.9,1.6-6.9,2.5-9.1s1.5-3.3,1.9-3.3.4,0,.5.4.2.6.2,1.1c0,1.5-.5,3.3-1.4,5.3-.9,2.1-2.2,3.9-3.6,5.6h-.1ZM70.2,76.4c.7-1.2,1.4-1.8,2.2-1.8s1.2.6,1.2,1.7c0,2.3-1.5,3.8-4.5,4.7,0-1.9.3-3.4,1.1-4.6ZM87.7,82.3c-1,2-2.2,3-3.3,3s-.9-.2-1.2-.6c-.3-.4-.5-.9-.5-1.6,0-1.7.5-3.5,1.6-5.5s2.2-3,3.3-3,.9.2,1.2.6c.3.4.4.9.4,1.6,0,1.7-.5,3.6-1.6,5.6h0Z"/>
  <path class="cls-2" d="M34,65.6c-9.1-9.1-22.3-10.6-29.5-3.4-7.2,7.2-5.7,20.4,3.4,29.5s26.4,6.4,29.5,3.4c2.5-2.5,5.7-20.4-3.4-29.5Z"/>
  <g>
    <path class="cls-2" d="M72.4,74.6c-.8,0-1.5.6-2.2,1.8-.8,1.2-1.1,2.7-1.1,4.6,3-.9,4.5-2.4,4.5-4.7s-.4-1.7-1.2-1.7Z"/>
    <path class="cls-2" d="M88.8,75.2c-.3-.4-.1-.6-1.2-.6s-2.2,1-3.3,3c-1.1,2-1.6,3.8-1.6,5.5s.2,1.2.5,1.6c.3.4.1.6,1.2.6s2.3-1,3.3-3h0c1.1-1.9,1.6-3.8,1.6-5.5s0-1.2-.4-1.6Z"/>
    <path class="cls-2" d="M104,78.8c-.9.4-1.9.7-2.9.9-.8,1.5-2,3-3.6,4.6-1.9,1.8-3.3,3-4.1,3.5-.8.5-.5.8-2.3.8s-2.7-1.6-2.6-4.9c-1.2,1.6-2.3,2.9-3.3,3.7-1,.8-2.1,1.2-3.1,1.2s-1.9-.5-2.6-1.5c-.5-.8-.9-1.7-1-2.7-1.5,1.4-2.7,2.4-3.9,3.1-1.1.8-2.3,1.1-3.9,1.1s-2.9-.5-3.9-1.5c-.7-.8-1.2-1.7-1.4-2.8-1.6,1.5-3,2.6-4.2,3.3-1.3.8-2.3,1.1-3.5,1.1s-2.2-.5-3-1.5c-.8-.9-1.2-1.4-1.2-3.9s.5-5.4,1.6-8.9c1.1-3.5,2.4-6.7,3.9-9.6l4.5-1.7h.3c.3,0,.6.3.8.8.2.5.3-.4.3,2s-.6,4.8-1.7,7c-1.1,2.2-2.8,4.6-5.2,7.2,0,1.2,0,1.5,0,2.5s.2,1.8.6,2.4c.4.6.9.9,1.5.9s1.3-.2,2-.7,1.8-1.4,3.2-2.8c.2-2.2,1-4.3,2.6-6.1,1.8-2,3.7-3,5.8-3s1.9.2,2.6.8c.7.5,1-.2,1,2.2s-2.6,4.4-7.8,5.9c.5,2.2,1.7,3.4,3.7,3.4s1.5-.2,2.2-.6c.7-.5,1.7-1.3,3.1-2.7.2-1.4.6-2.7,1.4-3.9.9-1.6,2.2-2.9,3.7-3.9s2.5-1.5,4-1.5,2.5.7,3.1,2l3.6-2h1l-1.6,5.2c-.8,2.5-1.2,4.3-1.2,5.3s.4,1.5,1.1,1.5.9-.2,1.5-.7c.5-.4,1.3-1.2,2.2-2.1.8-.8,1.5-1.7,2.2-2.7-1-.4-1.5-1.1-1.5-2s.3-1.9.9-2.9c.7-1,1.7-1.5,2.6-1.5s1.4.6,1.4,1.4-.3,1.8-.8,3.2c1.9-.3,3.6-1.8,5.1-4.6h1.4c5.6-13,4.3-27-4.5-35.8-12.4-12.4-35.2-9.8-50.8,5.8s-11.1,45.5-5.8,50.8c4.3,4.3,35.2,9.8,50.8-5.8,1.1-1.1,2.2-2.3,3.2-3.5.3-1.6,1.1-3.5,2.6-5.8ZM91.7,62h.7v-1.4l.9-.6v1.9h.9v.7h-.9v3.7c.1.1,0,.2.2.2h.7v.3h.2v.8h-.7c-.4,0-.6,0-.8-.2-.2-.1-.4-.2-.4-.4,0-.2,0-.5,0-1.1v-3.2h-.7v-.7ZM89.8,59.7h.9v1.1h-.9v-1.1ZM89.8,61.8h.9v5.5h-.9v-5.5ZM84.6,59.7h.9v4.3l2.2-2.2h1.3l-2.1,2,2.3,3.5h-1.2l-1.8-2.8-.7.6v2.2h-.9v-7.6ZM82.1,59.7h.9v1.1h-.9v-1.1ZM82.1,61.8h.9v5.5h-.9v-5.5ZM76.9,62.9c.2-.4.5-.8.9-1,.4-.2.7-.3,1.3-.3s1.1.2,1.5.5c.4.3.6.7.7,1.4h-.9c-.1-.3-.3-.5-.5-.8s-.3-.3-.8-.3-1,.2-1.2.5-.4.9-.4,1.6.1,1.3.4,1.6c.3.3.8.5,1.1.5s.7,0,.9-.3h0c.3-.3.5-.7.5-1h.9c-.1.6-.4,1.1-.8,1.5-.4.3-.8.5-1.5.5s-1.3-.2-1.8-.7-.7-1.2-.7-2.1.1-1.1.3-1.6ZM74.4,65.2c-.1,0-.4-.2-1-.3-.7-.2-1.2-.3-1.4-.4s-.5-.3-.6-.5c-.1-.2-.2-.5-.2-.7s0-.5.2-.7.3-.4.5-.5c.2,0,.3-.2.6-.3.3,0,.5,0,.8,0s.8,0,1.1.2c.3,0,.6.3.7.5.2.2.3.5.3.9h-.9c0-.2-.2-.4-.4-.5-.2,0-.5-.2-.8-.2s-.7,0-.9.2c-.2.2-.3.3-.3.5s0,.2.1.3c0,0,.2.2.4.2,0,0,.4.1.8.2.7.2,1.1.3,1.4.4.3,0,.5.3.6.5h0c.2.2.2.5.2.8s0,.6-.3.9-.4.5-.8.6c-.3.2-.7.2-1.2.2s-1.3-.2-1.6-.4-.6-.7-.7-1.3l.9-.2c0,.4.2.7.4.8.2.2.6.3,1,.3s.8,0,1-.3c.2-.2.3-.4.3-.6s0-.4-.3-.5Z"/>
    <path class="cls-2" d="M63.6,66.5c0-.5-.1-.8-.2-1.1,0-.3,0-.4-.5-.4s-1,1.1-1.9,3.3c-.9,2.2-1.7,5.2-2.5,9.1h.1c1.4-1.7,2.7-3.5,3.6-5.6.9-2,1.4-3.8,1.4-5.3Z"/>
    <path class="cls-2" d="M65.7,84c.1,0,.2-.2.3-.3,0,0-.2.2-.3.3Z"/>
    <path class="cls-2" d="M66.1,83.6s0,0,0,0h0Z"/>
  </g>
</svg>